<svg width="13" height="13" viewBox="0 0 13 13" fill="none" xmlns="http://www.w3.org/2000/svg">
<g clip-path="url(#clip0_84_22578)">
<path d="M12.7817 5.81146L6.949 0.496757C6.69298 0.263442 6.30692 0.263468 6.05101 0.496731L0.218309 5.81149C0.0132296 5.99836 -0.0545125 6.28629 0.0456788 6.54499C0.145895 6.8037 0.389899 6.97085 0.667342 6.97085H1.59892V12.2958C1.59892 12.5069 1.77011 12.6781 1.98123 12.6781H5.17826C5.38938 12.6781 5.56056 12.5069 5.56056 12.2958V9.06265H7.43952V12.2958C7.43952 12.5069 7.6107 12.6781 7.82182 12.6781H11.0187C11.2298 12.6781 11.401 12.507 11.401 12.2958V6.97085H12.3328C12.6102 6.97085 12.8542 6.80367 12.9544 6.54499C13.0545 6.28626 12.9867 5.99836 12.7817 5.81146Z" fill="#E36F59"/>
<path d="M11.3018 1.08496H8.73438L11.6841 3.76712V1.46724C11.6841 1.25612 11.513 1.08496 11.3018 1.08496Z" fill="#E36F59"/>
</g>
<defs>
<clipPath id="clip0_84_22578">
<rect width="13" height="13" fill="white"/>
</clipPath>
</defs>
</svg>
