<svg width="374" height="97" viewBox="0 0 374 97" fill="none" xmlns="http://www.w3.org/2000/svg">
<path opacity="0.06" d="M45.2747 49.76L43.5837 48.692L41.5414 51.9257L45.3623 51.7581L45.2747 49.76ZM46.8347 47.29V45.29H45.7324L45.1437 46.222L46.8347 47.29ZM63.4747 48.98L63.0224 50.9282L63.4747 48.98ZM74.9147 55.35L73.4199 56.6787L73.4292 56.6892L73.4386 56.6995L74.9147 55.35ZM74.6547 83.43L76.2504 84.6357L74.6547 83.43ZM61.7847 92.14L61.1435 90.2455L61.1345 90.2486L61.7847 92.14ZM0.424688 95H-1.57531L-1.57531 97H0.424688L0.424688 95ZM0.424688 82L-0.318094 80.143L-1.57531 80.6459L-1.57531 82H0.424688ZM11.4747 77.58L13.1584 78.6593L16.5265 73.4052L10.7319 75.723L11.4747 77.58ZM8.22469 82.65H6.22469L6.22469 89.476L9.90845 83.7293L8.22469 82.65ZM8.22469 15.7L9.80132 14.4695L6.22469 9.88689L6.22469 15.7H8.22469ZM12.3847 21.03L11.6559 22.8925L18.4505 25.5513L13.9613 19.7995L12.3847 21.03ZM0.424688 16.35H-1.57531L-1.57531 17.7151L-0.304111 18.2125L0.424688 16.35ZM0.424688 3.34999L0.385479 1.35038L-1.57531 1.38883L-1.57531 3.34999H0.424688ZM33.5747 2.7V0.699995H33.5551L33.5355 0.70038L33.5747 2.7ZM60.8747 4.91L60.2741 6.8177H60.2741L60.8747 4.91ZM71.7947 12.19L70.2094 13.4094V13.4094L71.7947 12.19ZM67.8947 43.52L69.0597 45.1456L69.0686 45.1393L69.0774 45.1328L67.8947 43.52ZM30.9747 21.16L29.5605 19.7458L26.1463 23.16H30.9747V21.16ZM34.8747 17.26H36.8747V12.4316L33.4605 15.8458L34.8747 17.26ZM34.8747 42.61L33.5368 44.0966L36.8747 47.1007V42.61H34.8747ZM30.9747 39.1V37.1H25.7628L29.6368 40.5866L30.9747 39.1ZM42.0247 38.71L41.7545 36.7283H41.7545L42.0247 38.71ZM46.9647 36.37L48.3326 37.8291L48.3561 37.807L48.3789 37.7842L46.9647 36.37ZM47.3547 23.63L45.8362 24.9316L45.8862 24.9899L45.9405 25.0442L47.3547 23.63ZM43.4547 21.55L43.1071 23.5196L43.1702 23.5307L43.2338 23.5378L43.4547 21.55ZM44.7547 76.02L44.496 74.0368L44.7547 76.02ZM49.8247 73.55L48.454 72.0936L48.4319 72.1144L48.4105 72.1358L49.8247 73.55ZM50.2147 60.03L48.7526 61.3946L48.7761 61.4198L48.8005 61.4442L50.2147 60.03ZM46.0547 57.69L45.7071 59.6596L45.7165 59.6612L45.7259 59.6628L46.0547 57.69ZM30.9747 57.3L29.475 55.9768L26.5427 59.3H30.9747V57.3ZM34.8747 52.88H36.8747V47.5905L33.375 51.5568L34.8747 52.88ZM34.8747 80.31L33.4605 81.7242L36.8747 85.1384L36.8747 80.31H34.8747ZM30.9747 76.41V74.41H26.1463L29.5605 77.8242L30.9747 76.41ZM46.9657 50.828L48.5257 48.358L45.1437 46.222L43.5837 48.692L46.9657 50.828ZM46.8347 49.29C52.9588 49.29 58.3491 49.8433 63.0224 50.9282L63.9269 47.0318C58.8936 45.8634 53.1905 45.29 46.8347 45.29V49.29ZM63.0224 50.9282C67.5524 51.9798 70.9714 53.9242 73.4199 56.6787L76.4095 54.0213C73.3113 50.5358 69.1037 48.2335 63.9269 47.0318L63.0224 50.9282ZM73.4386 56.6995C75.7535 59.2314 77.0747 63.1311 77.0747 68.74H81.0747C81.0747 62.5623 79.6225 57.5352 76.3907 54.0005L73.4386 56.6995ZM77.0747 68.74C77.0747 74.2902 75.6928 78.7384 73.059 82.2243L76.2504 84.6357C79.5099 80.3216 81.0747 74.9765 81.0747 68.74H77.0747ZM73.059 82.2243C70.4023 85.7405 66.4802 88.4393 61.1435 90.2456L62.4259 94.0344C68.3559 92.0274 73.0137 88.9195 76.2504 84.6357L73.059 82.2243ZM61.1345 90.2486C55.8533 92.0641 49.4119 93 41.7647 93V97C49.7175 97 56.6228 96.0293 62.4349 94.0314L61.1345 90.2486ZM41.7647 93L0.424688 93L0.424688 97L41.7647 97V93ZM2.42469 95L2.42469 82H-1.57531L-1.57531 95H2.42469ZM1.16747 83.857L12.2175 79.437L10.7319 75.723L-0.318094 80.143L1.16747 83.857ZM9.79093 76.5007L6.54093 81.5707L9.90845 83.7293L13.1584 78.6593L9.79093 76.5007ZM10.2247 82.65L10.2247 15.7H6.22469L6.22469 82.65H10.2247ZM6.64806 16.9305L10.8081 22.2605L13.9613 19.7995L9.80132 14.4695L6.64806 16.9305ZM13.1135 19.1675L1.15349 14.4875L-0.304111 18.2125L11.6559 22.8925L13.1135 19.1675ZM2.42469 16.35L2.42469 3.34999H-1.57531L-1.57531 16.35H2.42469ZM0.463896 5.34961L33.6139 4.69961L33.5355 0.70038L0.385479 1.35038L0.463896 5.34961ZM33.5747 4.7H44.3647V0.699995H33.5747V4.7ZM44.3647 4.7C50.5434 4.7 55.8353 5.42028 60.2741 6.8177L61.4753 3.0023C56.5541 1.45304 50.8394 0.699995 44.3647 0.699995V4.7ZM60.2741 6.8177C64.624 8.18708 67.8956 10.4015 70.2094 13.4094L73.3799 10.9706C70.4938 7.21852 66.4854 4.57957 61.4753 3.0023L60.2741 6.8177ZM70.2094 13.4094C72.4616 16.3373 73.6947 20.4114 73.6947 25.84H77.6947C77.6947 19.8286 76.3277 14.8027 73.3799 10.9706L70.2094 13.4094ZM73.6947 25.84C73.6947 33.3447 71.276 38.5602 66.712 41.9072L69.0774 45.1328C74.9133 40.8531 77.6947 34.282 77.6947 25.84H73.6947ZM66.7297 41.8944C61.9735 45.3029 54.8751 47.337 45.1871 47.7619L45.3623 51.7581C55.4342 51.3163 63.4159 49.1904 69.0597 45.1456L66.7297 41.8944ZM39.1647 19.16H30.9747V23.16H39.1647V19.16ZM32.3889 22.5742L36.2889 18.6742L33.4605 15.8458L29.5605 19.7458L32.3889 22.5742ZM32.8747 17.26L32.8747 42.61H36.8747L36.8747 17.26H32.8747ZM36.2126 41.1234L32.3126 37.6134L29.6368 40.5866L33.5368 44.0966L36.2126 41.1234ZM30.9747 41.1H36.6947L36.6947 37.1H30.9747L30.9747 41.1ZM36.6947 41.1C38.4453 41.1 40.3132 40.9619 42.2949 40.6917L41.7545 36.7283C39.9228 36.9781 38.2374 37.1 36.6947 37.1L36.6947 41.1ZM42.2949 40.6917C44.6074 40.3763 46.6391 39.4167 48.3326 37.8291L45.5968 34.9109C44.5169 35.9233 43.2554 36.5237 41.7545 36.7283L42.2949 40.6917ZM48.3789 37.7842C50.3108 35.8523 51.0447 32.958 51.0447 29.61H47.0447C47.0447 32.502 46.3919 34.1143 45.5505 34.9558L48.3789 37.7842ZM51.0447 29.61C51.0447 26.6051 50.4756 23.9225 48.7689 22.2158L45.9405 25.0442C46.4871 25.5908 47.0447 26.8949 47.0447 29.61H51.0447ZM48.8732 22.3284C47.5099 20.7379 45.7495 19.7927 43.6755 19.5622L43.2338 23.5378C44.2799 23.654 45.1195 24.0954 45.8362 24.9316L48.8732 22.3284ZM43.8023 19.5804C42.2231 19.3018 40.6766 19.16 39.1647 19.16V23.16C40.4261 23.16 41.7396 23.2782 43.1071 23.5196L43.8023 19.5804ZM39.2947 78.41C41.0443 78.41 42.9522 78.272 45.0134 78.0032L44.496 74.0368C42.5705 74.288 40.8385 74.41 39.2947 74.41V78.41ZM45.0134 78.0032C47.4322 77.6877 49.532 76.6711 51.2389 74.9642L48.4105 72.1358C47.344 73.2022 46.0638 73.8323 44.496 74.0368L45.0134 78.0032ZM51.1954 75.0064C53.2616 73.0617 54.0347 70.041 54.0347 66.53H50.0347C50.0347 69.6057 49.3344 71.2649 48.454 72.0936L51.1954 75.0064ZM54.0347 66.53C54.0347 63.2741 53.4258 60.4126 51.6289 58.6158L48.8005 61.4442C49.4303 62.074 50.0347 63.5459 50.0347 66.53H54.0347ZM51.6768 58.6654C50.2023 57.0855 48.4315 56.0585 46.3835 55.7172L45.7259 59.6628C46.7979 59.8414 47.8004 60.3745 48.7526 61.3946L51.6768 58.6654ZM46.4023 55.7204C44.871 55.4502 43.5307 55.3 42.4147 55.3V59.3C43.2053 59.3 44.2917 59.4098 45.7071 59.6596L46.4023 55.7204ZM42.4147 55.3L30.9747 55.3V59.3L42.4147 59.3V55.3ZM32.4744 58.6232L36.3744 54.2032L33.375 51.5568L29.475 55.9768L32.4744 58.6232ZM32.8747 52.88V80.31H36.8747V52.88H32.8747ZM36.2889 78.8958L32.3889 74.9958L29.5605 77.8242L33.4605 81.7242L36.2889 78.8958ZM30.9747 78.41H39.2947V74.41H30.9747V78.41ZM148.34 63.15L148.34 61.15H146.71L146.381 62.7463L148.34 63.15ZM163.94 63.15H165.94L165.94 61.15H163.94L163.94 63.15ZM163.94 95V97H165.94V95H163.94ZM95.6903 95H93.6903V97H95.6903V95ZM95.6903 82L94.9555 80.1399L93.6903 80.6397V82H95.6903ZM106.22 77.84L107.96 78.8272L110.758 73.8969L105.485 75.9799L106.22 77.84ZM103.49 82.65H101.49V90.2256L105.23 83.6372L103.49 82.65ZM103.49 15.7L105.23 14.7128L101.49 8.12437V15.7H103.49ZM106.22 20.51L105.485 22.3701L110.758 24.4531L107.96 19.5228L106.22 20.51ZM95.6903 16.35H93.6903L93.6903 17.7103L94.9555 18.2101L95.6903 16.35ZM95.6903 3.34999L95.6598 1.35023L93.6903 1.38025V3.34999H95.6903ZM138.33 2.7H140.33V0.669275L138.3 0.700228L138.33 2.7ZM138.33 15.7L139.153 17.523L140.33 16.9917V15.7H138.33ZM127.67 20.51L125.891 19.5964L123.277 24.6863L128.493 22.333L127.67 20.51ZM130.14 15.7H132.14L128.361 14.7864L130.14 15.7ZM130.14 80.05L128.726 81.4642L132.14 84.8784V80.05H130.14ZM126.24 76.15V74.15H121.412L124.826 77.5642L126.24 76.15ZM148.21 76.15L149.743 77.4352L152.498 74.15H148.21V76.15ZM144.83 80.18L142.871 79.7763L146.363 81.4652L144.83 80.18ZM148.34 65.15H163.94L163.94 61.15H148.34L148.34 65.15ZM161.94 63.15V95H165.94V63.15H161.94ZM163.94 93L95.6903 93V97L163.94 97V93ZM97.6903 95V82H93.6903V95H97.6903ZM96.4252 83.8601L106.955 79.7001L105.485 75.9799L94.9555 80.1399L96.4252 83.8601ZM104.481 76.8528L101.751 81.6628L105.23 83.6372L107.96 78.8272L104.481 76.8528ZM105.49 82.65L105.49 15.7H101.49L101.49 82.65H105.49ZM101.751 16.6872L104.481 21.4972L107.96 19.5228L105.23 14.7128L101.751 16.6872ZM106.955 18.6499L96.4252 14.4899L94.9555 18.2101L105.485 22.3701L106.955 18.6499ZM97.6903 16.35V3.34999L93.6903 3.34999V16.35H97.6903ZM95.7208 5.34976L138.361 4.69976L138.3 0.700228L95.6598 1.35023L95.7208 5.34976ZM136.33 2.7V15.7H140.33V2.7H136.33ZM137.508 13.877L126.848 18.687L128.493 22.333L139.153 17.523L137.508 13.877ZM129.449 21.4236L131.919 16.6136L128.361 14.7864L125.891 19.5964L129.449 21.4236ZM128.14 15.7L128.14 80.05L132.14 80.05L132.14 15.7H128.14ZM131.555 78.6358L127.655 74.7358L124.826 77.5642L128.726 81.4642L131.555 78.6358ZM126.24 78.15L148.21 78.15V74.15L126.24 74.15V78.15ZM146.678 74.8648L143.298 78.8948L146.363 81.4652L149.743 77.4352L146.678 74.8648ZM146.789 80.5837L150.299 63.5537L146.381 62.7463L142.871 79.7763L146.789 80.5837ZM198.755 91.62L197.737 93.3414L197.751 93.3498L197.765 93.358L198.755 91.62ZM184.715 75.76L182.887 76.5723L182.893 76.586L182.9 76.5996L184.715 75.76ZM183.025 28.83L181.128 28.1975L181.125 28.2056L181.122 28.2136L183.025 28.83ZM191.995 13.23L193.454 14.5979L191.995 13.23ZM206.035 3.87L205.333 1.99731L205.323 2.00102L206.035 3.87ZM243.345 3.87L242.613 5.73116L242.623 5.73513L243.345 3.87ZM256.735 12.97L255.242 14.3007L255.257 14.3179L255.273 14.3346L256.735 12.97ZM264.925 27.4L263.019 28.0064L263.023 28.0195L263.028 28.0324L264.925 27.4ZM262.195 73.55L260.402 72.6638L260.398 72.6723L262.195 73.55ZM246.465 90.84L247.488 92.5588L246.465 90.84ZM231.905 74.46L230.796 72.7959L230.781 72.8056L230.767 72.8156L231.905 74.46ZM237.235 65.88L235.326 65.2834L235.32 65.3017L235.315 65.32L237.235 65.88ZM237.495 31.56L235.56 32.0648L235.566 32.09L235.574 32.1151L237.495 31.56ZM215.395 23.24L216.489 24.9139L216.512 24.8994L216.533 24.8844L215.395 23.24ZM210.325 31.56L208.397 31.0268V31.0268L210.325 31.56ZM210.065 65.62L208.12 66.0851L208.125 66.105L208.13 66.1248L210.065 65.62ZM214.875 74.2L216.124 72.6383L214.875 74.2ZM221.635 94.95C212.881 94.95 205.615 93.2251 199.745 89.882L197.765 93.358C204.375 97.1216 212.362 98.95 221.635 98.95V94.95ZM199.773 89.8986C193.993 86.4794 189.579 81.5124 186.53 74.9204L182.9 76.5996C186.264 83.8743 191.21 89.4806 197.737 93.3414L199.773 89.8986ZM186.543 74.9477C183.565 68.2474 182.035 60.0465 182.035 50.28H178.035C178.035 60.4468 179.625 69.2326 182.887 76.5723L186.543 74.9477ZM182.035 50.28C182.035 42.2908 183.013 35.3567 184.928 29.4464L181.122 28.2136C179.05 34.61 178.035 41.9758 178.035 50.28H182.035ZM184.922 29.4625C186.925 23.4545 189.78 18.5173 193.454 14.5979L190.536 11.8621C186.41 16.2627 183.285 21.7255 181.128 28.1975L184.922 29.4625ZM193.454 14.5979C197.141 10.665 201.564 7.71359 206.747 5.73897L205.323 2.00102C199.586 4.1864 194.649 7.47495 190.536 11.8621L193.454 14.5979ZM206.737 5.74265C212.022 3.76085 218.061 2.75 224.885 2.75V-1.25C217.668 -1.25 211.141 -0.180862 205.333 1.99734L206.737 5.74265ZM224.885 2.75C231.711 2.75 237.607 3.76171 242.613 5.73113L244.077 2.00886C238.509 -0.181711 232.098 -1.25 224.885 -1.25V2.75ZM242.623 5.73513C247.724 7.70989 251.916 10.5692 255.242 14.3007L258.228 11.6393C254.447 7.39745 249.712 4.1901 244.067 2.00486L242.623 5.73513ZM255.273 14.3346C258.687 17.9922 261.278 22.5334 263.019 28.0064L266.831 26.7936C264.932 20.8266 262.063 15.7478 258.197 11.6054L255.273 14.3346ZM263.028 28.0324C264.854 33.5113 265.785 39.7918 265.785 46.9H269.785C269.785 39.4482 268.809 32.7287 266.822 26.7675L263.028 28.0324ZM265.785 46.9C265.785 56.8847 263.966 65.4525 260.402 72.6638L263.988 74.4362C267.877 66.5675 269.785 57.3687 269.785 46.9H265.785ZM260.398 72.6723C256.921 79.7911 251.94 85.2554 245.442 89.1212L247.488 92.5588C254.683 88.278 260.189 82.2156 263.992 74.4277L260.398 72.6723ZM245.442 89.1212C238.966 92.9741 231.06 94.95 221.635 94.95V98.95C231.623 98.95 240.27 96.8526 247.488 92.5588L245.442 89.1212ZM223.585 78.8C227.202 78.8 230.393 77.9393 233.043 76.1044L230.767 72.8156C228.91 74.1007 226.555 74.8 223.585 74.8V78.8ZM233.014 76.1241C235.909 74.1941 237.878 70.8188 239.155 66.44L235.315 65.32C234.165 69.2612 232.581 71.6059 230.796 72.7959L233.014 76.1241ZM239.144 66.4765C240.534 62.028 241.185 55.8094 241.185 47.94H237.185C237.185 55.6706 236.536 61.4119 235.326 65.2834L239.144 66.4765ZM241.185 47.94C241.185 40.8476 240.62 35.1701 239.416 31.0049L235.574 32.1151C236.624 35.7499 237.185 40.9924 237.185 47.94H241.185ZM239.43 31.0551C238.328 26.8307 236.496 23.5362 233.693 21.5956L231.417 24.8844C233.12 26.0638 234.582 28.316 235.56 32.0648L239.43 31.0551ZM233.693 21.5956C231.012 19.739 227.63 18.9 223.715 18.9V22.9C227.08 22.9 229.592 23.621 231.417 24.8844L233.693 21.5956ZM223.715 18.9C220.098 18.9 216.907 19.7607 214.257 21.5956L216.533 24.8844C218.39 23.5993 220.745 22.9 223.715 22.9V18.9ZM214.3 21.5661C211.463 23.4213 209.583 26.739 208.397 31.0268L212.253 32.0932C213.32 28.2343 214.82 26.0053 216.489 24.9139L214.3 21.5661ZM208.397 31.0268C207.198 35.3628 206.635 41.5144 206.635 49.37H210.635C210.635 41.6256 211.199 35.9038 212.253 32.0932L208.397 31.0268ZM206.635 49.37C206.635 56.2839 207.114 61.8785 208.12 66.0851L212.01 65.1549C211.109 61.3881 210.635 56.1494 210.635 49.37H206.635ZM208.13 66.1248C209.228 70.3357 210.994 73.6568 213.626 75.7617L216.124 72.6383C214.422 71.2765 212.982 68.8777 212 65.1152L208.13 66.1248ZM213.626 75.7617C216.244 77.8566 219.633 78.8 223.585 78.8V74.8C220.256 74.8 217.839 74.0101 216.124 72.6383L213.626 75.7617ZM307.399 91.49L308.367 89.7395L307.399 91.49ZM291.929 23.11L293.723 23.9958L293.727 23.9873L291.929 23.11ZM307.399 6.46999L306.426 4.7227L306.417 4.72804L307.399 6.46999ZM348.609 2.57L348.188 4.52517L348.194 4.52646L348.609 2.57ZM365.899 8.02999L367.896 8.14919L367.98 6.73206L366.671 6.18466L365.899 8.02999ZM364.339 34.16V36.16H366.224L366.336 34.2792L364.339 34.16ZM348.739 34.16L346.816 34.7071L347.229 36.16H348.739V34.16ZM344.709 19.99L345.965 18.4332L341.063 14.4801L342.786 20.5371L344.709 19.99ZM348.739 23.24L348.147 25.1501L349.995 21.6832L348.739 23.24ZM341.459 21.42L341.082 23.3841L341.095 23.3866L341.459 21.42ZM324.169 23.76L325.256 25.4391L325.273 25.428L325.29 25.4166L324.169 23.76ZM317.409 32.73L315.542 32.0147L315.535 32.0322L315.529 32.0497L317.409 32.73ZM319.489 69.13L317.744 70.1063L317.75 70.1175L317.757 70.1286L319.489 69.13ZM338.209 76.41L338.506 78.3879L338.554 78.3807L338.602 78.3712L338.209 76.41ZM343.669 74.98L345.403 75.9769L347.97 71.5128L343.063 73.0742L343.669 74.98ZM340.679 80.18H338.679V87.6705L342.413 81.1769L340.679 80.18ZM340.679 58.99L342.137 57.6206L338.679 53.9399V58.99H340.679ZM344.709 63.28L344.199 65.2139L350.94 66.9917L346.167 61.9106L344.709 63.28ZM332.879 60.16H330.879V61.7009L332.369 62.0939L332.879 60.16ZM332.879 46.64L332.847 44.6403L330.879 44.672V46.64H332.879ZM373.179 45.99H375.179V43.9575L373.147 43.9903L373.179 45.99ZM373.179 59.64L373.855 61.5224L375.179 61.047V59.64H373.179ZM363.039 63.28L361.284 62.3223L358.765 66.9393L363.715 65.1624L363.039 63.28ZM365.379 58.99H367.379L363.624 58.0323L365.379 58.99ZM365.379 89.28L366.14 91.1299L367.379 90.6204V89.28H365.379ZM346.919 95L346.522 93.0399L346.508 93.0427L346.495 93.0456L346.919 95ZM330.279 94.95C321.899 94.95 314.615 93.1925 308.367 89.7395L306.432 93.2405C313.357 97.0675 321.326 98.95 330.279 98.95V94.95ZM308.367 89.7395C302.15 86.304 297.31 81.2335 293.839 74.4582L290.279 76.2818C294.089 83.7199 299.475 89.396 306.432 93.2405L308.367 89.7395ZM293.839 74.4582C290.381 67.706 288.599 59.2855 288.599 49.11H284.599C284.599 59.7345 286.458 68.8206 290.279 76.2818L293.839 74.4582ZM288.599 49.11C288.599 39.1984 290.336 30.8507 293.723 23.9958L290.136 22.2242C286.416 29.7559 284.599 38.7416 284.599 49.11H288.599ZM293.727 23.9873C297.111 17.0545 301.991 11.8172 308.382 8.21195L306.417 4.72804C299.288 8.74947 293.855 14.6055 290.132 22.2327L293.727 23.9873ZM308.373 8.21726C314.861 4.6034 322.743 2.75 332.099 2.75V-1.25C322.216 -1.25 313.631 0.709923 306.426 4.72272L308.373 8.21726ZM332.099 2.75C337.321 2.75 342.683 3.3395 348.188 4.52516L349.03 0.614834C343.269 -0.626169 337.624 -1.25 332.099 -1.25V2.75ZM348.194 4.52646C353.784 5.71206 359.428 7.49311 365.128 9.87534L366.671 6.18466C360.758 3.71355 354.875 1.8546 349.024 0.613529L348.194 4.52646ZM363.903 7.9108L362.343 34.0408L366.336 34.2792L367.896 8.14919L363.903 7.9108ZM364.339 32.16H348.739V36.16H364.339V32.16ZM350.663 33.6129L346.633 19.4429L342.786 20.5371L346.816 34.7071L350.663 33.6129ZM343.454 21.5468L347.484 24.7968L349.995 21.6832L345.965 18.4332L343.454 21.5468ZM349.332 21.3299C346.752 20.529 344.248 19.9025 341.824 19.4534L341.095 23.3866C343.35 23.8042 345.701 24.391 348.147 25.1501L349.332 21.3299ZM341.837 19.456C339.472 19.0011 337.178 18.77 334.959 18.77V22.77C336.9 22.77 338.94 22.9722 341.082 23.384L341.837 19.456ZM334.959 18.77C330.392 18.77 326.386 19.8459 323.049 22.1034L325.29 25.4166C327.846 23.6875 331.033 22.77 334.959 22.77V18.77ZM323.083 22.0809C319.702 24.2687 317.216 27.6429 315.542 32.0147L319.277 33.4453C320.723 29.6705 322.744 27.0646 325.256 25.4391L323.083 22.0809ZM315.529 32.0497C313.947 36.4215 313.199 41.9625 313.199 48.59H317.199C317.199 42.2175 317.925 37.1851 319.29 33.4103L315.529 32.0497ZM313.199 48.59C313.199 57.3639 314.657 64.5877 317.744 70.1063L321.235 68.1537C318.602 63.4456 317.199 56.9761 317.199 48.59H313.199ZM317.757 70.1286C321.091 75.9142 326.421 78.8 333.399 78.8V74.8C327.725 74.8 323.781 72.5725 321.222 68.1314L317.757 70.1286ZM333.399 78.8C334.989 78.8 336.692 78.6599 338.506 78.3879L337.913 74.4321C336.26 74.6801 334.757 74.8 333.399 74.8V78.8ZM338.602 78.3712C340.416 78.0083 342.308 77.512 344.276 76.8858L343.063 73.0742C341.218 73.6613 339.469 74.1184 337.817 74.4488L338.602 78.3712ZM341.936 73.9831L338.946 79.1831L342.413 81.1769L345.403 75.9769L341.936 73.9831ZM342.679 80.18V58.99H338.679V80.18H342.679ZM339.222 60.3594L343.252 64.6494L346.167 61.9106L342.137 57.6206L339.222 60.3594ZM345.219 61.3461L333.389 58.2261L332.369 62.0939L344.199 65.2139L345.219 61.3461ZM334.879 60.16V46.64H330.879V60.16H334.879ZM332.912 48.6397L373.212 47.9897L373.147 43.9903L332.847 44.6403L332.912 48.6397ZM371.179 45.99V59.64H375.179V45.99H371.179ZM372.504 57.7576L362.364 61.3976L363.715 65.1624L373.855 61.5224L372.504 57.7576ZM364.795 64.2377L367.135 59.9477L363.624 58.0323L361.284 62.3223L364.795 64.2377ZM363.379 58.99V89.28H367.379V58.99H363.379ZM364.619 87.4301C358.396 89.9877 352.364 91.8546 346.522 93.0399L347.317 96.9601C353.435 95.7188 359.71 93.7723 366.14 91.1299L364.619 87.4301ZM346.495 93.0456C340.628 94.321 335.225 94.95 330.279 94.95V98.95C335.56 98.95 341.251 98.279 347.344 96.9544L346.495 93.0456Z" fill="#23262D"/>
</svg>
