<svg width="14" height="13" viewBox="0 0 14 13" fill="none" xmlns="http://www.w3.org/2000/svg">
<path d="M12.6274 0.558815V2.25234C12.6274 3.0178 12.0064 3.63464 11.2411 3.63464H10.3665C9.60113 3.63464 8.97193 3.0178 8.97193 2.25234V0.552734H5.0302V2.25234C5.0302 3.0178 4.40103 3.63464 3.63574 3.63464H2.76105C1.99573 3.63464 1.37479 3.0178 1.37479 2.25234V0.558815C0.705894 0.578976 0.15625 1.13246 0.15625 1.81277V11.7377C0.15625 12.4308 0.718026 13 1.41113 13H12.591C13.2831 13 13.8459 12.4296 13.8459 11.7377V1.81277C13.8459 1.13246 13.2963 0.578976 12.6274 0.558815ZM12.2212 11.1196C12.2212 11.4191 11.9783 11.6621 11.6787 11.6621H2.29956C1.99992 11.6621 1.75706 11.4191 1.75706 11.1196V5.99305C1.75706 5.69341 1.99989 5.45041 2.29956 5.45041H11.6786C11.9783 5.45041 12.2212 5.69341 12.2212 5.99305L12.2212 11.1196Z" fill="#C4CACF"/>
</svg>
