<svg width="45" height="76" viewBox="0 0 45 76" fill="none" xmlns="http://www.w3.org/2000/svg">
<path d="M28.8049 34.4819C26.5882 33.8437 24.3716 33.5199 22.2153 33.5199C18.8856 33.5199 16.1073 34.2808 13.9529 35.2126C16.0299 27.6091 21.0192 14.4894 30.9583 13.0119C31.8787 12.875 32.633 12.2094 32.8842 11.3135L35.0564 3.54381C35.2396 2.88674 35.131 2.18341 34.7562 1.61319C34.3814 1.04298 33.7791 0.662515 33.1041 0.569996C32.3706 0.469925 31.6229 0.418945 30.8818 0.418945C18.9517 0.418945 7.13682 12.8712 2.15125 30.7009C-0.775338 41.1612 -1.63349 56.8875 5.57535 66.7861C9.60931 72.3249 15.4946 75.2827 23.0678 75.5782C23.099 75.5791 23.1292 75.5801 23.1603 75.5801C32.5046 75.5801 40.7906 69.2869 43.3113 60.2776C44.8171 54.8917 44.1364 49.2434 41.393 44.3691C38.6788 39.5497 34.2087 36.0368 28.8049 34.4819Z" fill="#E36F59"/>
</svg>
