<svg width="19" height="26" viewBox="0 0 19 26" fill="none" xmlns="http://www.w3.org/2000/svg">
<path d="M18.0896 7.04251L17.9504 6.33202C17.8252 5.69453 17.5414 5.09218 16.8938 4.86177C16.6863 4.78808 16.4507 4.75639 16.2915 4.60384C16.1324 4.45126 16.0854 4.21432 16.0486 3.99459C15.9806 3.59129 15.9164 3.18766 15.8466 2.78507C15.7863 2.43895 15.7384 2.05011 15.5814 1.7326C15.377 1.30622 14.9527 1.05689 14.5307 0.891918C14.3144 0.81035 14.0938 0.741356 13.8698 0.685278C12.8157 0.404232 11.7074 0.300912 10.6229 0.242036C9.32123 0.169461 8.01609 0.191317 6.71752 0.307474C5.75098 0.39631 4.73299 0.503788 3.8145 0.841618C3.47879 0.965278 3.13288 1.1137 2.87761 1.37579C2.56441 1.6978 2.46216 2.19581 2.69084 2.59736C2.85342 2.88253 3.1288 3.084 3.42086 3.21728C3.8013 3.38902 4.19861 3.51968 4.60619 3.60713C5.7411 3.86063 6.91657 3.96015 8.07601 4.00251C9.36107 4.05493 10.6482 4.01244 11.9272 3.87542C12.2434 3.84031 12.5592 3.79817 12.8743 3.74904C13.2454 3.69153 13.4837 3.2011 13.3743 2.85945C13.2434 2.451 12.8917 2.29257 12.4939 2.35422C12.4353 2.36353 12.377 2.37213 12.3184 2.38075L12.2762 2.38695C12.1414 2.40415 12.0067 2.42023 11.872 2.43516C11.5936 2.46546 11.3146 2.49027 11.0349 2.50954C10.4085 2.55362 9.7804 2.57396 9.15263 2.57498C8.53577 2.57498 7.91855 2.55741 7.30304 2.51644C7.02221 2.49783 6.74207 2.47419 6.4626 2.44549C6.33547 2.43205 6.2087 2.41793 6.0819 2.40209L5.96127 2.38659L5.93503 2.38282L5.80994 2.36455C5.55433 2.32564 5.29872 2.28086 5.04585 2.22679C5.02034 2.22107 4.9975 2.20674 4.98115 2.18614C4.9648 2.16554 4.95587 2.13989 4.95587 2.11349C4.95587 2.08708 4.9648 2.06146 4.98115 2.04086C4.9975 2.02026 5.02034 2.00591 5.04585 2.00018H5.05061C5.26977 1.95299 5.49061 1.9127 5.71212 1.87757C5.78599 1.86588 5.86006 1.85438 5.93433 1.84313H5.93638C6.0751 1.83383 6.2145 1.8087 6.35252 1.79215C7.55343 1.66593 8.76147 1.6229 9.9682 1.66337C10.554 1.68057 11.1396 1.71537 11.7227 1.77529C11.8481 1.78839 11.9729 1.80217 12.0976 1.81764C12.1453 1.8235 12.1934 1.8304 12.2414 1.83626L12.3382 1.85038C12.6204 1.89283 12.9011 1.94439 13.1803 2.00502C13.5941 2.09592 14.1253 2.12554 14.3095 2.58361C14.368 2.72894 14.3946 2.89045 14.427 3.04303L14.4684 3.23759C14.4694 3.2411 14.4702 3.24468 14.4707 3.24829C14.5682 3.70747 14.6658 4.16666 14.7633 4.62588C14.7706 4.65979 14.7708 4.69485 14.7638 4.72883C14.7571 4.76282 14.7434 4.79503 14.7237 4.82342C14.7041 4.85184 14.6787 4.87584 14.6495 4.89393C14.6202 4.91202 14.5874 4.92381 14.5535 4.9286H14.5506L14.4911 4.93686L14.4322 4.94478C14.2454 4.96936 14.0583 4.99231 13.8712 5.01367C13.5024 5.05613 13.1331 5.09289 12.7632 5.12387C12.0282 5.18564 11.2917 5.22617 10.5537 5.24543C10.1777 5.25555 9.80177 5.26026 9.42596 5.25955C7.93014 5.25838 6.43562 5.17053 4.94974 4.99644C4.78887 4.97715 4.62803 4.95649 4.46716 4.93547C4.59188 4.95168 4.3765 4.92308 4.33288 4.91689C4.23064 4.90243 4.1284 4.88739 4.02615 4.87176C3.68294 4.81976 3.3418 4.75571 2.99928 4.69958C2.58518 4.63069 2.18917 4.66515 1.81462 4.87176C1.50717 5.04177 1.25833 5.30251 1.10129 5.61911C0.939751 5.95662 0.891708 6.3241 0.819449 6.68674C0.74719 7.04941 0.634726 7.4396 0.677336 7.81189C0.768999 8.61537 1.32488 9.26836 2.12441 9.41438C2.87657 9.55213 3.63285 9.66374 4.39115 9.75877C7.36995 10.1274 10.3793 10.1716 13.3674 9.89035C13.6108 9.86737 13.8538 9.84235 14.0963 9.81527C14.1721 9.80685 14.249 9.81566 14.3209 9.84109C14.3928 9.86651 14.4583 9.90787 14.5124 9.96214C14.5664 10.0164 14.6081 10.0823 14.6337 10.1548C14.6593 10.2274 14.6686 10.3048 14.6609 10.3815L14.5851 11.1247C14.4327 12.6265 14.2803 14.1282 14.1279 15.6297C13.9688 17.2066 13.8087 18.7834 13.6476 20.3599C13.6021 20.8041 13.5567 21.248 13.5113 21.6919C13.4676 22.1288 13.4615 22.5798 13.3794 23.0117C13.2499 23.6906 12.7949 24.1079 12.131 24.2603C11.5227 24.4002 10.9014 24.4736 10.2776 24.4794C9.58615 24.4831 8.89497 24.4522 8.20348 24.4559C7.46528 24.4601 6.5611 24.3913 5.99125 23.836C5.49061 23.3484 5.42143 22.5848 5.35326 21.9246C5.26237 21.0506 5.17229 20.1767 5.083 19.3027L4.582 14.4436L4.25788 11.2996C4.25245 11.2476 4.24699 11.1963 4.24187 11.1439C4.20303 10.7689 3.94026 10.4018 3.52618 10.4207C3.17172 10.4365 2.7689 10.741 2.81047 11.1439L3.05074 13.4748L3.54763 18.2964C3.6892 19.6661 3.83041 21.0357 3.97128 22.4057C3.99855 22.6682 4.02411 22.9314 4.05272 23.1936C4.20847 24.6279 5.29225 25.4007 6.63437 25.6182C7.41825 25.7458 8.2212 25.7719 9.01664 25.785C10.0363 25.8015 11.0663 25.8412 12.0693 25.6546C13.5556 25.379 14.6707 24.3761 14.8298 22.8203C14.8753 22.3714 14.9209 21.922 14.9661 21.4729C15.1172 19.9868 15.2681 18.5008 15.4189 17.0146L15.9115 12.1585L16.1376 9.93304C16.1487 9.82269 16.195 9.71893 16.269 9.63712C16.3433 9.55532 16.4416 9.49979 16.5492 9.4788C16.9743 9.39508 17.3805 9.25218 17.6829 8.92533C18.1641 8.40494 18.2599 7.72648 18.0896 7.04251ZM2.1026 7.52261C2.10907 7.5195 2.09714 7.57563 2.09205 7.60183C2.09101 7.56222 2.09305 7.52708 2.1026 7.52261ZM2.14384 7.84496C2.14725 7.84256 2.15747 7.85634 2.16803 7.87286C2.15201 7.8577 2.1418 7.84635 2.1435 7.84496H2.14384ZM2.18441 7.89903C2.19905 7.92418 2.20689 7.94002 2.18441 7.89903V7.89903ZM2.26585 7.96585H2.26789C2.26789 7.96826 2.27164 7.97066 2.27302 7.97307C2.27074 7.97043 2.26823 7.968 2.26551 7.96585H2.26585ZM16.5296 7.86596C16.3769 8.01268 16.1467 8.08089 15.9195 8.11498C13.3702 8.49725 10.7837 8.69079 8.20653 8.60538C6.36207 8.54167 4.53701 8.33469 2.71094 8.07398C2.53202 8.04849 2.33811 8.01545 2.21506 7.88217C1.98331 7.63074 2.09714 7.12447 2.15747 6.82073C2.21268 6.54245 2.31834 6.17153 2.64585 6.13192C3.15707 6.07132 3.75077 6.2893 4.25654 6.36679C4.86545 6.4607 5.47664 6.53589 6.09011 6.59239C8.7082 6.83346 11.3703 6.79592 13.9768 6.44326C14.4518 6.37874 14.9253 6.30379 15.3969 6.21838C15.8173 6.14225 16.283 5.99934 16.5371 6.43913C16.7112 6.73874 16.7342 7.13963 16.7073 7.47817C16.699 7.62567 16.6354 7.76442 16.529 7.86596H16.5296Z" fill="#0D0C22"/>
</svg>
