<svg width="10" height="10" viewBox="0 0 10 10" fill="none" xmlns="http://www.w3.org/2000/svg">
<path d="M9.84016 5.38856L6.22881 8.99999C6.12572 9.10308 5.98832 9.15967 5.84182 9.15967C5.69516 9.15967 5.55784 9.103 5.45475 8.99999L5.12687 8.67203C5.02386 8.5691 4.96711 8.43163 4.96711 8.28504C4.96711 8.13854 5.02386 7.99643 5.12687 7.8935L7.23368 5.78205H0.540239C0.238453 5.78205 0 5.54579 0 5.24393V4.78027C0 4.47841 0.238453 4.21833 0.540239 4.21833H7.25758L5.12695 2.09509C5.02394 1.992 4.96719 1.85826 4.96719 1.71168C4.96719 1.56526 5.02394 1.42957 5.12695 1.32656L5.45483 0.999653C5.55792 0.896564 5.69524 0.840386 5.8419 0.840386C5.9884 0.840386 6.1258 0.897296 6.22889 1.00038L9.84024 4.61174C9.94357 4.71515 10.0004 4.8532 10 4.99995C10.0003 5.14718 9.94357 5.28531 9.84016 5.38856Z" fill="#212836"/>
</svg>
