<svg width="14" height="18" viewBox="0 0 14 18" fill="none" xmlns="http://www.w3.org/2000/svg">
<path d="M13.9754 13.1451C13.8912 13.5544 13.6627 13.9214 13.3301 14.1823C12.9973 14.443 12.5472 15.0093 12.1213 15H1.81014C1.38409 15.0093 1.00269 14.443 0.669915 14.1823C0.337145 13.9214 0.108799 13.5543 0.0245852 13.1451C-0.0376644 12.7848 0.0190191 12.4144 0.186429 12.088C0.353838 11.7614 0.623324 11.4959 0.955681 11.3299C1.49115 11.0326 1.83798 10.4915 1.8787 9.88978L2.19038 6.8356C2.29496 5.81463 2.73537 4.85478 3.445 4.10028C4.15464 3.34563 4.96993 2.83737 6 2.65182V1C6 0.693781 6.29199 0.267944 6.56265 0.114833C6.83332 -0.0382778 7.16697 -0.0382778 7.43764 0.114833C7.70832 0.267944 8 0.693778 8 1V2.65182C9.05002 2.86678 9.87644 3.42296 10.5886 4.2089C11.3008 4.9947 11.7358 5.98423 11.8296 7.03103L12.1213 9.89003C12.162 10.4917 12.509 11.0328 13.0443 11.33C13.3765 11.496 13.646 11.7616 13.8134 12.0881C13.9809 12.4146 14.0377 12.7848 13.9754 13.1451ZM7.00019 18C7.4642 18 7.9093 17.8193 8.23754 17.4979C8.56562 17.1763 9 16.4547 9 16H5C5 16.4547 5.43477 17.1763 5.76285 17.4979C6.09108 17.8193 6.53619 18 7.00019 18Z" fill="white"/>
</svg>
