<svg width="14" height="14" viewBox="0 0 14 14" fill="none" xmlns="http://www.w3.org/2000/svg">
<path d="M5.09973 7.72383C5.09973 7.54845 4.95748 7.40637 4.78196 7.40637H3.67307C3.49775 7.40637 3.35547 7.54845 3.35547 7.72383V8.83258C3.35547 9.00819 3.49775 9.15032 3.67307 9.15032H4.78196C4.95748 9.15032 5.09973 9.00819 5.09973 8.83258V7.72383Z" fill="#C4CACF"/>
<path d="M7.87302 7.72383C7.87302 7.54845 7.73074 7.40637 7.55557 7.40637H6.44651C6.27119 7.40637 6.12891 7.54845 6.12891 7.72383V8.83258C6.12891 9.00819 6.27119 9.15032 6.44651 9.15032H7.55557C7.73074 9.15032 7.87302 9.00819 7.87302 8.83258V7.72383Z" fill="#C4CACF"/>
<path d="M10.6466 7.72383C10.6466 7.54845 10.5043 7.40637 10.329 7.40637H9.22011C9.04459 7.40637 8.90234 7.54845 8.90234 7.72383V8.83258C8.90234 9.00819 9.04459 9.15032 9.22011 9.15032H10.329C10.5043 9.15032 10.6466 9.00819 10.6466 8.83258V7.72383Z" fill="#C4CACF"/>
<path d="M5.09973 10.4952C5.09973 10.3196 4.95748 10.1776 4.78196 10.1776H3.67307C3.49775 10.1776 3.35547 10.3196 3.35547 10.4952V11.6038C3.35547 11.7793 3.49775 11.9214 3.67307 11.9214H4.78196C4.95748 11.9214 5.09973 11.7793 5.09973 11.6038V10.4952Z" fill="#C4CACF"/>
<path d="M7.87302 10.4952C7.87302 10.3196 7.73074 10.1776 7.55557 10.1776H6.44651C6.27119 10.1776 6.12891 10.3196 6.12891 10.4952V11.6038C6.12891 11.7793 6.27119 11.9214 6.44651 11.9214H7.55557C7.73074 11.9214 7.87302 11.7793 7.87302 11.6038V10.4952Z" fill="#C4CACF"/>
<path d="M10.6466 10.4952C10.6466 10.3196 10.5043 10.1776 10.3292 10.1776H9.22011C9.04459 10.1776 8.90234 10.3196 8.90234 10.4952V11.6038C8.90234 11.7793 9.04459 11.9214 9.22011 11.9214H10.3292C10.5043 11.9214 10.6466 11.7793 10.6466 11.6038V10.4952Z" fill="#C4CACF"/>
<path d="M12.6274 1.55894V3.25247C12.6274 4.01793 12.0064 4.63477 11.2411 4.63477H10.3665C9.60113 4.63477 8.97193 4.01793 8.97193 3.25247V1.55286H5.0302V3.25247C5.0302 4.01793 4.40103 4.63477 3.63574 4.63477H2.76105C1.99573 4.63477 1.37479 4.01793 1.37479 3.25247V1.55894C0.705894 1.5791 0.15625 2.13259 0.15625 2.81289V12.7378C0.15625 13.4309 0.718026 14.0001 1.41113 14.0001H12.591C13.2831 14.0001 13.8459 13.4297 13.8459 12.7378V2.81289C13.8459 2.13259 13.2963 1.5791 12.6274 1.55894ZM12.2212 12.1197C12.2212 12.4193 11.9783 12.6623 11.6787 12.6623H2.29956C1.99992 12.6623 1.75706 12.4193 1.75706 12.1197V6.99318C1.75706 6.69353 1.99989 6.45053 2.29956 6.45053H11.6786C11.9783 6.45053 12.2212 6.69353 12.2212 6.99318L12.2212 12.1197Z" fill="#C4CACF"/>
<path d="M2.76061 3.72677H3.62564C3.8882 3.72677 4.10109 3.5142 4.10109 3.25163V0.475307C4.10109 0.212717 3.8882 0 3.62564 0H2.76061C2.49802 0 2.28516 0.212717 2.28516 0.475307V3.25163C2.28516 3.5142 2.49802 3.72677 2.76061 3.72677Z" fill="#C4CACF"/>
<path d="M10.3543 3.72677H11.2194C11.4818 3.72677 11.6946 3.5142 11.6946 3.25163V0.475307C11.6947 0.212717 11.4818 0 11.2194 0H10.3543C10.0918 0 9.87891 0.212717 9.87891 0.475307V3.25163C9.87891 3.5142 10.0918 3.72677 10.3543 3.72677Z" fill="#C4CACF"/>
</svg>
