<svg width="72" height="35" viewBox="0 0 72 35" fill="none" xmlns="http://www.w3.org/2000/svg">
<path fill-rule="evenodd" clip-rule="evenodd" d="M31.9996 6.99521C28.822 9.27937 26.7525 13.0082 26.7525 17.2203C26.7525 21.4325 28.822 25.1614 31.9997 27.4455C28.8633 31.6891 23.8241 34.4408 18.1423 34.4408C8.63172 34.4408 0.921875 26.731 0.921875 17.2204C0.921875 7.70984 8.63172 0 18.1423 0C23.8241 0 28.8632 2.75173 31.9996 6.99521Z" fill="#E36F59"/>
<path d="M12.52 11.5807L10.76 12.1807L11.06 11.7407V22.6807L10.76 22.2607L12.52 22.7807V24.2207H6.72V22.7807L8.46 22.2807L8.2 22.6807V11.7407L8.56 12.1807L6.72 11.6807V10.2407L12.52 10.1407V11.5807ZM16.055 24.2207V22.7807L18.275 22.2207L17.755 22.9407V11.7607L18.335 12.2007H15.075L15.715 11.6407L15.175 14.1807H13.475V10.1407H24.915V14.1807H23.215L22.715 11.7607L23.315 12.2007H20.055L20.635 11.7607V22.9407L20.135 22.2207L22.335 22.7807V24.2207H16.055Z" fill="white"/>
<path d="M34.0348 22.5807L33.8348 22.3407L35.3748 22.7807V24.2207H29.8948V22.7807L31.4348 22.3407L31.2348 22.5807V15.2807L31.4148 15.4607L29.8948 15.0407V13.6007L34.0348 13.4607V22.5807ZM32.5548 11.9007C32.0615 11.9007 31.6615 11.7607 31.3548 11.4807C31.0615 11.2007 30.9148 10.8007 30.9148 10.2807C30.9148 9.7207 31.0682 9.30737 31.3748 9.0407C31.6948 8.7607 32.0948 8.6207 32.5748 8.6207C33.0415 8.6207 33.4282 8.7607 33.7348 9.0407C34.0415 9.30737 34.1948 9.71404 34.1948 10.2607C34.1948 10.8074 34.0348 11.2207 33.7148 11.5007C33.4082 11.7674 33.0215 11.9007 32.5548 11.9007ZM36.502 24.2207V22.7807L38.102 22.3207L37.842 22.6207V15.2007L38.102 15.5007H36.442V14.0007L38.162 13.5607L37.842 13.9807V12.7007C37.842 11.754 38.0087 10.974 38.342 10.3607C38.6887 9.73404 39.1687 9.26737 39.782 8.9607C40.3954 8.65404 41.0954 8.5007 41.882 8.5007C42.162 8.5007 42.462 8.5207 42.782 8.5607C43.102 8.58737 43.422 8.6407 43.742 8.7207L43.362 10.6607C43.1754 10.6074 42.9887 10.5674 42.802 10.5407C42.6287 10.514 42.4554 10.5007 42.282 10.5007C41.7487 10.5007 41.342 10.654 41.062 10.9607C40.782 11.2674 40.642 11.7674 40.642 12.4607V13.9807L40.282 13.6407H43.202L43.142 15.5007H40.362L40.642 15.2007V22.6207L40.382 22.3207L42.242 22.7807V24.2207H36.502ZM48.3216 22.5807L48.1216 22.3407L49.6616 22.7807V24.2207H44.1816V22.7807L45.7216 22.3407L45.5216 22.5807V15.2807L45.7016 15.4607L44.1816 15.0407V13.6007L48.3216 13.4607V22.5807ZM46.8416 11.9007C46.3482 11.9007 45.9482 11.7607 45.6416 11.4807C45.3482 11.2007 45.2016 10.8007 45.2016 10.2807C45.2016 9.7207 45.3549 9.30737 45.6616 9.0407C45.9816 8.7607 46.3816 8.6207 46.8616 8.6207C47.3282 8.6207 47.7149 8.7607 48.0216 9.0407C48.3282 9.30737 48.4816 9.71404 48.4816 10.2607C48.4816 10.8074 48.3216 11.2207 48.0016 11.5007C47.6949 11.7674 47.3082 11.9007 46.8416 11.9007ZM55.6288 24.4607C54.7088 24.4607 53.8754 24.2474 53.1288 23.8207C52.3954 23.3807 51.8154 22.754 51.3888 21.9407C50.9621 21.1274 50.7488 20.1407 50.7488 18.9807C50.7488 17.9274 50.9021 17.0407 51.2088 16.3207C51.5154 15.6007 51.9288 15.0207 52.4488 14.5807C52.9688 14.1274 53.5488 13.8007 54.1888 13.6007C54.8288 13.4007 55.4888 13.3007 56.1688 13.3007C56.8088 13.3007 57.4554 13.3807 58.1088 13.5407C58.7621 13.7007 59.2954 13.8807 59.7088 14.0807L59.6288 17.0207H57.8288L57.5288 15.3807L57.7488 15.5407C57.5488 15.4607 57.3021 15.4007 57.0088 15.3607C56.7288 15.3207 56.4688 15.3007 56.2288 15.3007C55.6554 15.3007 55.1754 15.4474 54.7888 15.7407C54.4154 16.0207 54.1354 16.4274 53.9488 16.9607C53.7621 17.4807 53.6688 18.1007 53.6688 18.8207C53.6688 19.594 53.7754 20.2474 53.9888 20.7807C54.2021 21.314 54.5021 21.7207 54.8888 22.0007C55.2888 22.2674 55.7488 22.4007 56.2688 22.4007C56.6821 22.4007 57.1354 22.314 57.6288 22.1407C58.1221 21.9674 58.6354 21.7074 59.1688 21.3607L60.1088 22.7807C59.3621 23.354 58.6154 23.7807 57.8688 24.0607C57.1221 24.3274 56.3754 24.4607 55.6288 24.4607ZM66.2692 13.3007C67.8426 13.3007 69.0692 13.7674 69.9492 14.7007C70.8292 15.634 71.2692 16.9607 71.2692 18.6807C71.2692 19.8807 71.0559 20.914 70.6292 21.7807C70.2026 22.634 69.5892 23.294 68.7892 23.7607C67.9892 24.2274 67.0292 24.4607 65.9092 24.4607C64.3359 24.4607 63.1159 23.994 62.2492 23.0607C61.3959 22.1274 60.9692 20.8007 60.9692 19.0807C60.9692 17.8807 61.1759 16.854 61.5892 16.0007C62.0159 15.134 62.6226 14.4674 63.4092 14.0007C64.1959 13.534 65.1492 13.3007 66.2692 13.3007ZM66.1292 15.3007C65.3692 15.3007 64.8026 15.6007 64.4292 16.2007C64.0559 16.7874 63.8692 17.7007 63.8692 18.9407C63.8692 20.1807 64.0492 21.0807 64.4092 21.6407C64.7692 22.1874 65.3159 22.4607 66.0492 22.4607C66.5826 22.4607 67.0159 22.3274 67.3492 22.0607C67.6826 21.794 67.9359 21.3874 68.1092 20.8407C68.2826 20.294 68.3692 19.6207 68.3692 18.8207C68.3692 17.6074 68.1826 16.7207 67.8092 16.1607C67.4359 15.5874 66.8759 15.3007 66.1292 15.3007Z" fill="#23262D"/>
</svg>
