<svg width="16" height="16" viewBox="0 0 16 16" fill="none" xmlns="http://www.w3.org/2000/svg">
<path d="M10.6055 8.08943L15.9995 11.8094V4.21234L10.6055 8.08943Z" fill="#C4CACF"/>
<path d="M0 4.21234V11.8094L5.394 8.08943L0 4.21234Z" fill="#C4CACF"/>
<path d="M15.0012 2H1.00125C0.50225 2 0.10625 2.40582 0.03125 2.92836L8.00125 8.65673L15.9712 2.92836C15.8962 2.40582 15.5002 2 15.0012 2Z" fill="#C4CACF"/>
<path d="M9.68925 8.74834L8.27425 9.76507C8.19025 9.82507 8.09525 9.85453 7.99925 9.85453C7.90325 9.85453 7.80825 9.82507 7.72425 9.76507L6.30925 8.74725L0.03125 13.0793C0.10825 13.5974 0.50225 14 0.99925 14H14.9993C15.4963 14 15.8903 13.5974 15.9673 13.0793L9.68925 8.74834Z" fill="#C4CACF"/>
</svg>
