<svg width="595" height="582" viewBox="0 0 595 582" fill="none" xmlns="http://www.w3.org/2000/svg">
<g clip-path="url(#clip0_87_27406)">
<path d="M577.385 225.731C511.394 112.663 332.122 153.015 295.536 98.0381C276.836 69.8725 255.833 37.2382 225.48 20.3117C196.482 4.06232 162.877 -1.76039 133.608 0.406202C28.9986 8.12468 -15.4468 101.559 4.74335 204.336C31.5732 341.373 153.121 481.389 297.433 482.337C372.909 482.879 444.997 455.932 501.638 417.745C502.045 417.475 502.451 417.204 502.858 416.933C559.499 378.476 627.793 311.989 577.385 225.731Z" fill="#E36F59"/>
<path opacity="0.8" d="M577.385 225.731C511.394 112.663 332.122 153.015 295.536 98.0381C276.836 69.8725 255.833 37.2382 225.48 20.3117C196.482 4.06232 162.877 -1.76039 133.608 0.406202C28.9986 8.12468 -15.4468 101.559 4.74335 204.336C31.5732 341.373 153.121 481.389 297.433 482.337C372.909 482.879 444.997 455.932 501.638 417.745C502.045 417.475 502.451 417.204 502.858 416.933C559.499 378.476 627.793 311.989 577.385 225.731Z" fill="white"/>
<path d="M64.6372 233.992H57.32C40.924 233.992 27.6445 247.262 27.6445 263.647V426.547C27.6445 442.932 40.924 456.202 57.32 456.202H158.135C174.531 456.202 187.811 442.932 187.811 426.547" stroke="#263238" stroke-width="1.1031" stroke-miterlimit="10" stroke-linecap="round" stroke-linejoin="round" stroke-dasharray="4.41 4.41"/>
<path d="M179.547 80.1638V48.0712C179.547 38.0507 187.677 29.926 197.704 29.926H328.737C338.765 29.926 346.895 38.0507 346.895 48.0712" stroke="#263238" stroke-width="1.1031" stroke-miterlimit="10" stroke-linecap="round" stroke-linejoin="round" stroke-dasharray="4.41 4.41"/>
<path d="M297.432 582C440.745 582 556.923 565.752 556.923 545.71C556.923 525.667 440.745 509.419 297.432 509.419C154.119 509.419 37.9414 525.667 37.9414 545.71C37.9414 565.752 154.119 582 297.432 582Z" fill="#E0E0E0"/>
<path opacity="0.5" d="M297.432 582C440.745 582 556.923 565.752 556.923 545.71C556.923 525.667 440.745 509.419 297.432 509.419C154.119 509.419 37.9414 525.667 37.9414 545.71C37.9414 565.752 154.119 582 297.432 582Z" fill="white"/>
<path d="M542.154 123.36V367.237C542.154 383.893 528.739 397.298 512.072 397.298H82.9296C66.2626 397.298 52.8477 383.893 52.8477 367.237V123.36C52.8477 122.683 52.8477 122.006 52.9832 121.194C54.0672 105.621 67.0756 93.2988 82.9296 93.2988H512.072C527.926 93.2988 540.935 105.621 542.019 121.194C542.154 122.006 542.154 122.683 542.154 123.36Z" fill="white" stroke="#263238" stroke-width="1.1031" stroke-miterlimit="10" stroke-linecap="round" stroke-linejoin="round"/>
<path d="M500.824 385.924H95.6654C80.0824 385.924 67.4805 373.331 67.4805 357.758V132.568H529.009V357.758C529.009 373.331 516.407 385.924 500.824 385.924Z" fill="#263238"/>
<path opacity="0.2" d="M529.009 132.568V357.758C529.009 373.331 516.542 385.924 501.095 385.924H95.3944C79.9469 385.924 67.4805 373.331 67.4805 357.758V132.568H529.009Z" fill="white"/>
<path d="M542.02 121.329H52.9844C54.0684 105.621 67.0768 93.2988 82.9309 93.2988H512.073C527.927 93.2988 540.936 105.621 542.02 121.329Z" fill="#75B687" stroke="#263238" stroke-width="1.1031" stroke-miterlimit="10"/>
<path d="M113.011 107.246C113.011 110.225 110.572 112.527 107.726 112.527C104.745 112.527 102.441 110.09 102.441 107.246C102.441 104.267 104.88 101.965 107.726 101.965C110.707 101.965 113.011 104.402 113.011 107.246Z" fill="#263238"/>
<path d="M135.507 107.246C135.507 110.225 133.068 112.527 130.222 112.527C127.241 112.527 124.938 110.09 124.938 107.246C124.938 104.267 127.377 101.965 130.222 101.965C133.203 101.965 135.507 104.402 135.507 107.246Z" fill="#263238"/>
<path d="M152.714 112.527C155.633 112.527 157.999 110.163 157.999 107.246C157.999 104.329 155.633 101.965 152.714 101.965C149.796 101.965 147.43 104.329 147.43 107.246C147.43 110.163 149.796 112.527 152.714 112.527Z" fill="#263238"/>
<path d="M529.009 132.568V357.758C529.009 373.331 516.407 385.924 500.824 385.924H95.6654C81.9794 385.924 70.5971 376.174 68.0225 363.175C67.616 361.414 67.4805 359.654 67.4805 357.758V132.568H529.009Z" stroke="#263238" stroke-width="1.1031" stroke-miterlimit="10"/>
<path d="M528.602 167.369C526.57 166.286 524.537 165.338 522.369 164.796L519.795 153.422H509.09L506.515 164.796C504.347 165.338 502.179 166.286 500.282 167.369L490.526 161.14L482.937 168.723L489.035 178.473C487.951 180.504 487.003 182.535 486.46 184.702L475.078 187.275V197.972L486.46 200.545C487.003 202.712 487.951 204.878 489.035 206.909L482.802 216.659L490.39 224.242L500.146 218.013C502.179 219.096 504.212 220.044 506.38 220.586L508.954 231.825H519.659L522.234 220.586C524.402 219.909 526.57 219.096 528.467 218.013L529.009 218.284V167.098L528.602 167.369ZM514.51 206.638C506.786 206.638 500.553 200.41 500.553 192.691C500.553 184.973 506.786 178.744 514.51 178.744C522.234 178.744 528.467 184.973 528.467 192.691C528.331 200.41 522.098 206.638 514.51 206.638Z" fill="#263238"/>
<path d="M334.697 178.338V155.724L310.848 150.443C309.493 145.839 307.732 141.37 305.428 137.172L308.274 132.568H195.669L198.515 137.037C196.211 141.235 194.314 145.703 193.095 150.307L169.246 155.588V178.202L193.095 183.483C194.314 188.087 196.211 192.556 198.515 196.754L185.371 217.336L201.361 233.315L221.957 220.18C226.158 222.482 230.63 224.378 235.237 225.596L240.521 249.429H263.151L268.435 225.596C273.043 224.242 277.514 222.482 281.579 220.18L302.176 233.315L318.165 217.336L305.157 196.754C307.461 192.556 309.358 188.087 310.577 183.483L334.697 178.338ZM252.039 196.212C235.914 196.212 222.77 183.077 222.77 166.963C222.77 150.849 235.914 137.714 252.039 137.714C268.164 137.714 281.308 150.849 281.308 166.963C281.308 183.077 268.164 196.212 252.039 196.212Z" fill="#263238"/>
<path d="M184.151 333.926L185.1 315.916L166.4 310.635C165.587 306.979 164.232 303.323 162.606 299.937L173.853 284.094L161.793 270.688L144.855 280.167C141.603 278.136 138.215 276.511 134.556 275.292L131.44 256.335L113.418 255.387L108.269 274.074C104.61 274.886 100.951 276.24 97.5637 277.865L81.7096 266.626L68.2947 278.678L77.9155 295.604C75.883 298.854 74.2569 302.239 73.0374 305.895L67.6172 306.843V331.217L71.5468 332.301C72.3598 335.957 73.7149 339.613 75.3409 342.998L67.6172 353.831L68.1592 363.175L76.154 372.112L93.092 362.633C96.3441 364.664 99.7317 366.425 103.39 367.643L106.507 386.059L106.642 386.872L124.665 387.82L125.207 386.059L129.949 369.133C133.743 368.32 137.266 366.966 140.654 365.341L156.373 376.58L169.788 364.529L160.302 347.602C162.335 344.352 163.961 340.967 165.18 337.311L184.151 333.926ZM136.318 305.895C127.646 296.281 113.011 295.604 103.39 304.135C93.7695 312.801 93.092 327.426 101.629 337.04C110.301 346.654 124.936 347.331 134.556 338.801C144.177 330.27 144.99 315.51 136.318 305.895Z" fill="#263238"/>
<path d="M328.055 307.114C328.733 304.27 329.139 301.427 329.139 298.583L342.012 291.812L338.489 278.678L323.855 279.355C322.364 276.917 320.603 274.615 318.57 272.584L322.906 258.637L311.117 251.866L301.225 262.564C298.515 261.886 295.534 261.48 292.689 261.48L285.913 248.481L272.769 252.001L273.447 266.626C271.008 268.115 268.704 269.876 266.672 271.907L252.715 267.574L245.94 279.355L256.78 289.24C256.102 292.083 255.696 294.927 255.696 297.771L242.688 304.541L246.211 317.676L260.845 316.999C262.336 319.437 264.097 321.739 266.13 323.77L261.794 337.717L273.582 344.488L283.339 333.79C286.184 334.467 289.03 334.873 291.876 334.873L298.651 347.873L311.795 344.352L311.253 331.894L311.117 329.728C313.556 328.238 315.86 326.478 318.028 324.447L331.985 328.78L337.812 318.759L338.76 316.999L328.055 307.114ZM297.16 315.103C287.81 317.676 278.19 312.124 275.615 302.781C273.04 293.437 278.596 283.823 287.946 281.25C297.296 278.678 306.917 284.229 309.491 293.573C311.93 302.916 306.51 312.531 297.16 315.103Z" fill="#263238"/>
<path d="M478.197 330.134L481.178 312.124L462.885 304.812C462.479 301.02 461.53 297.229 460.311 293.573L473.454 278.948L462.885 264.053L444.728 271.772C441.746 269.334 438.494 267.303 434.971 265.678L433.887 246.043L415.865 243.064L408.548 261.209C404.754 261.616 400.96 262.564 397.301 263.782L382.666 250.647L367.761 261.209L375.485 279.219C373.317 281.927 371.555 284.771 370.065 287.75C369.794 288.156 369.658 288.563 369.387 288.969L349.739 290.052L346.758 308.062L349.739 309.281L365.051 315.374C365.457 319.166 366.27 322.957 367.625 326.613L354.482 341.238L365.051 356.133L383.208 348.415C386.19 350.852 389.442 352.883 392.965 354.508L394.049 374.007L412.071 376.986L419.388 358.977C423.182 358.571 426.976 357.623 430.635 356.404L445.27 369.539L460.175 358.841L452.451 340.696C454.89 337.717 456.923 334.332 458.684 330.946L478.197 330.134ZM427.654 329.322C417.085 336.905 402.315 334.467 394.726 323.905C387.138 313.343 389.577 298.583 400.147 291C410.716 283.417 425.486 285.854 433.074 296.416C440.662 307.114 438.223 321.738 427.654 329.322Z" fill="#263238"/>
<path d="M233.879 428.443H92.1417C82.3854 428.443 74.3906 420.454 74.3906 410.704V214.628C74.3906 204.878 82.3854 196.889 92.1417 196.889H233.879C243.636 196.889 251.63 204.878 251.63 214.628V410.704C251.63 420.454 243.771 428.443 233.879 428.443Z" fill="#70CAFC" stroke="#263238" stroke-width="1.1031" stroke-miterlimit="10"/>
<path opacity="0.2" d="M233.879 428.443H92.1417C82.3854 428.443 74.3906 420.454 74.3906 410.704V214.628C74.3906 204.878 82.3854 196.889 92.1417 196.889H233.879C243.636 196.889 251.63 204.878 251.63 214.628V410.704C251.63 420.454 243.771 428.443 233.879 428.443Z" fill="black"/>
<path d="M268.162 232.096V428.172C268.162 437.922 260.167 445.911 250.411 445.911H108.673C98.9166 445.911 90.9219 437.922 90.9219 428.172V232.096C90.9219 222.346 98.9166 214.357 108.673 214.357H250.411C260.167 214.357 268.162 222.346 268.162 232.096Z" fill="white" stroke="#263238" stroke-width="1.1031" stroke-miterlimit="10" stroke-linecap="round" stroke-linejoin="round"/>
<path d="M268.162 232.096V242.658H90.9219V232.096C90.9219 222.346 98.9166 214.357 108.673 214.357H250.411C260.167 214.357 268.162 222.346 268.162 232.096Z" fill="#70CAFC" stroke="#263238" stroke-width="1.1031" stroke-miterlimit="10"/>
<path d="M151.222 254.71H107.59V262.022H151.222V254.71Z" fill="#70CAFC"/>
<path d="M151.222 320.249H107.59V327.561H151.222V320.249Z" fill="#70CAFC"/>
<path d="M151.222 379.695H107.59V387.007H151.222V379.695Z" fill="#70CAFC"/>
<path d="M231.441 272.855H107.59V278.272H231.441V272.855Z" fill="#263238"/>
<path d="M209.083 283.146H107.59V288.427H209.083V283.146Z" fill="#263238"/>
<path d="M222.362 293.167H107.59V298.448H222.362V293.167Z" fill="#263238"/>
<path d="M222.362 303.323H107.59V308.604H222.362V303.323Z" fill="#263238"/>
<path d="M231.441 332.301H107.59V337.717H231.441V332.301Z" fill="#263238"/>
<path d="M209.083 342.592H107.59V347.873H209.083V342.592Z" fill="#263238"/>
<path d="M222.362 352.613H107.59V357.894H222.362V352.613Z" fill="#263238"/>
<path d="M231.441 397.569H107.59V402.986H231.441V397.569Z" fill="#263238"/>
<path d="M209.083 407.725H107.59V413.006H209.083V407.725Z" fill="#263238"/>
<path d="M222.362 417.881H107.59V423.162H222.362V417.881Z" fill="#263238"/>
<path d="M467.894 78.4035V157.619C467.894 169.265 458.409 178.744 446.756 178.744H264.096C252.442 178.744 242.957 169.265 242.957 157.619V78.4035C242.957 66.7581 252.442 57.2793 264.096 57.2793H446.756C458.409 57.2793 467.894 66.7581 467.894 78.4035Z" fill="white" stroke="#222221" stroke-width="1.1031" stroke-miterlimit="10"/>
<path d="M467.894 78.4035V80.1639H242.957V78.4035C242.957 66.7581 252.442 57.2793 264.096 57.2793H446.756C458.409 57.2793 467.894 66.7581 467.894 78.4035Z" fill="#70CAFC" stroke="#263238" stroke-width="1.1031" stroke-miterlimit="10"/>
<path d="M275.885 72.4455C274.666 73.6642 272.497 73.6642 271.278 72.4455C270.058 71.2268 270.058 69.0602 271.278 67.8415C272.497 66.6228 274.666 66.6228 275.885 67.8415C277.24 69.1956 277.24 71.2268 275.885 72.4455Z" fill="#263238"/>
<path d="M291.061 72.4455C289.841 73.6642 287.673 73.6642 286.454 72.4455C285.234 71.2268 285.234 69.0602 286.454 67.8415C287.673 66.6228 289.841 66.6228 291.061 67.8415C292.28 69.1956 292.28 71.2268 291.061 72.4455Z" fill="#263238"/>
<path d="M306.104 72.4455C304.884 73.6642 302.716 73.6642 301.497 72.4455C300.277 71.2268 300.277 69.0602 301.497 67.8415C302.716 66.6228 304.884 66.6228 306.104 67.8415C307.323 69.1956 307.323 71.2268 306.104 72.4455Z" fill="#263238"/>
<path d="M330.762 94.7883H257.184V158.296H330.762V94.7883Z" stroke="#263238" stroke-width="1.1031" stroke-miterlimit="10" stroke-linecap="round" stroke-linejoin="round" stroke-dasharray="4.41 4.41"/>
<path d="M426.835 94.7883H342.145V99.2569H426.835V94.7883Z" fill="#263238"/>
<path d="M407.051 103.996H342.145V108.465H407.051V103.996Z" fill="#263238"/>
<path d="M438.895 113.204H342.145V117.673H438.895V113.204Z" fill="#263238"/>
<path d="M424.531 122.277H342.145V126.745H424.531V122.277Z" fill="#263238"/>
<path d="M360.984 539.074C360.984 539.074 321.688 550.314 316.268 552.345C311.254 554.105 297.704 558.845 287.541 557.355C286.593 557.22 285.508 556.949 284.695 556.678C274.397 553.564 269.79 550.72 268.435 544.356C267.08 537.856 272.229 533.116 277.107 530.137C281.985 527.023 308.815 523.908 308.815 523.908L315.319 525.804L360.984 539.074Z" fill="#E36F59"/>
<path d="M287.541 557.22C286.593 557.084 285.508 556.813 284.695 556.543C274.397 553.428 269.79 550.584 268.435 544.22C267.08 537.72 272.229 532.981 277.107 530.002C281.985 526.887 308.815 523.773 308.815 523.773L315.319 525.669C309.493 528.377 287.677 529.866 282.934 532.575C278.191 535.283 275.888 540.429 278.733 547.47C280.088 551.126 284.153 554.782 287.541 557.22Z" fill="white"/>
<path d="M355.023 540.699C355.023 540.699 325.483 548.282 313.83 553.293C302.176 558.167 279.818 560.334 271.823 550.178C263.829 540.158 270.875 531.356 278.87 529.46C286.864 527.564 302.854 524.45 311.662 525.669" stroke="#263238" stroke-width="1.1031" stroke-miterlimit="10" stroke-linecap="round" stroke-linejoin="round"/>
<path d="M288.082 556.678C288.082 556.678 273.041 548.418 278.054 536.908C281.713 528.377 301.768 530.273 311.66 525.533" stroke="#263238" stroke-width="1.1031" stroke-miterlimit="10" stroke-linecap="round" stroke-linejoin="round"/>
<path d="M480.634 559.115C480.227 563.178 478.872 566.969 474.807 569.407C472.097 571.032 468.303 571.98 462.747 571.844C448.926 571.709 423.044 561.824 423.044 561.824L398.789 548.418L411.391 528.512L414.779 523.096L423.722 525.127C423.722 525.127 431.039 529.325 438.492 532.575C445.945 535.96 463.967 536.637 470.335 541.783C476.704 546.793 481.311 552.345 480.634 559.115Z" fill="#E36F59"/>
<path d="M480.633 559.115C480.227 563.178 478.872 566.969 474.807 569.407C475.62 566.292 476.162 561.959 474.129 557.355C471.419 551.262 462.611 545.98 450.958 545.033C439.44 544.085 430.497 538.668 425.89 536.231C422.231 534.335 414.643 530.273 411.391 528.512L414.778 523.096L423.722 525.127C423.722 525.127 431.039 529.325 438.492 532.575C445.944 535.96 463.966 536.637 470.335 541.783C476.704 546.793 481.311 552.345 480.633 559.115Z" fill="white"/>
<path d="M404.076 552.209C421.285 562.094 441.069 569.271 460.852 571.573C465.324 572.115 470.337 572.115 473.319 568.865C474.945 566.969 475.622 564.396 475.351 561.959C474.809 555.73 469.524 550.855 463.833 548.282C458.142 545.845 451.773 545.168 445.676 543.814C439.578 542.46 433.751 540.293 428.196 537.449C423.859 535.147 419.523 532.439 414.781 531.356C409.903 530.273 404.211 531.627 401.637 535.825" stroke="#263238" stroke-width="1.1031" stroke-miterlimit="10" stroke-linecap="round" stroke-linejoin="round"/>
<path d="M471.825 570.49C476.297 568.188 479.956 563.99 480.633 558.98C481.446 553.157 478.194 547.199 473.451 543.543C468.709 539.887 462.882 538.262 457.055 537.043C451.229 535.825 445.266 535.012 439.711 532.845C431.174 529.46 422.773 522.96 413.965 525.262" stroke="#263238" stroke-width="1.1031" stroke-miterlimit="10" stroke-linecap="round" stroke-linejoin="round"/>
<path d="M431.445 342.457L390.387 326.884L389.845 326.749C389.845 326.749 389.981 325.665 390.116 324.041C390.387 320.791 390.523 315.374 389.032 313.614C386.729 310.906 380.224 313.208 373.991 310.229C367.623 307.385 355.969 312.531 355.969 312.531C355.969 312.531 347.568 311.041 343.774 317.135C341.877 322.009 342.554 329.322 342.554 329.322C342.554 329.322 342.283 329.457 341.741 329.592C336.863 331.353 310.304 341.373 304.613 345.436C298.38 349.904 291.469 394.996 289.301 408.267C287.133 421.537 283.203 433.453 285.1 438.057C287.133 442.661 315.724 464.598 332.12 470.285C348.516 475.973 406.919 474.348 406.919 474.348C406.919 474.348 407.867 474.077 409.629 473.535C419.521 470.421 454.481 457.286 473.045 426.547C473.045 426.547 455.158 367.643 431.445 342.457ZM320.602 418.423C317.621 420.589 319.247 428.849 319.247 428.849L314.098 424.381L326.971 392.694L332.527 417.068C332.527 416.933 323.584 416.256 320.602 418.423ZM423.857 438.599C422.502 439.276 427.922 424.11 425.347 420.589C422.773 417.068 414.914 417.475 414.914 417.475L415.591 413.277C415.727 412.871 420.198 389.444 420.198 389.444L421.689 387.549C421.689 387.549 437.678 414.902 440.524 424.516C440.524 424.652 423.044 438.599 423.857 438.599Z" fill="#E36F59"/>
<path opacity="0.5" d="M390.524 326.749C390.253 327.561 389.846 328.374 389.44 329.186C385.917 335.821 370.74 348.279 370.74 348.279L366.133 334.196L363.558 348.279C358.409 346.113 342.962 332.707 342.962 332.707C342.962 332.707 342.42 331.488 341.742 329.457C342.284 329.322 342.555 329.186 342.555 329.186C342.555 329.186 341.878 321.874 343.775 316.999C347.433 310.905 355.97 312.395 355.97 312.395C355.97 312.395 367.624 307.249 373.992 310.093C380.361 312.937 386.865 310.77 389.033 313.478C391.337 316.187 389.982 326.613 389.982 326.613L390.524 326.749Z" fill="white"/>
<path d="M354.072 243.606L332.934 266.084C332.934 266.084 329.952 268.657 331.172 275.157C332.391 281.657 335.102 287.344 337.134 287.75C339.167 288.156 342.012 288.156 342.012 288.156C342.012 288.156 346.619 298.042 349.736 301.833C349.736 301.833 350.82 316.999 350.278 321.197C350.278 321.197 357.866 327.832 365.048 328.645C372.23 329.457 383.341 318.489 383.341 318.489L386.051 305.083C386.051 305.083 392.555 295.198 392.962 292.625C393.368 290.052 396.35 290.729 397.84 289.375C399.331 288.021 402.718 282.334 403.26 276.782C403.802 271.365 403.802 265.001 397.434 266.897C391.878 265.407 395.401 253.762 395.401 253.762L385.78 245.231L354.072 243.606Z" fill="#FFE6DA"/>
<path opacity="0.2" d="M431.447 342.457L390.389 326.884L389.847 326.749C389.847 326.749 389.982 325.665 390.118 324.041L389.305 329.322L383.207 337.582C383.207 337.582 393.505 341.238 402.178 345.977C408.275 349.227 411.663 355.727 410.85 362.497L403.262 427.089L400.145 463.786L409.495 473.535C419.387 470.421 454.347 457.286 472.911 426.547C473.047 426.547 455.16 367.643 431.447 342.457ZM423.858 438.599C422.503 439.276 427.924 424.11 425.349 420.589C422.774 417.068 414.915 417.475 414.915 417.475L415.593 413.277C415.728 412.871 420.2 389.444 420.2 389.444L421.69 387.549C421.69 387.549 437.68 414.902 440.525 424.516C440.525 424.652 423.045 438.599 423.858 438.599Z" fill="black"/>
<path opacity="0.2" d="M335.239 420.589L328.87 399.329C328.87 399.329 317.488 360.331 309.628 350.717L311.661 378.205C311.661 378.205 304.886 410.975 298.652 420.724C292.419 430.474 291.064 432.912 298.652 432.912C306.241 432.912 324.669 447.536 324.669 447.536L323.314 435.349L335.239 420.589ZM319.249 428.849L314.1 424.381L326.973 392.694L332.529 417.068C332.529 417.068 323.721 416.391 320.74 418.558C317.623 420.589 319.249 428.849 319.249 428.849Z" fill="black"/>
<path d="M349.602 301.833C349.602 301.833 350.821 313.343 349.602 318.624" stroke="#263238" stroke-width="1.1031" stroke-miterlimit="10" stroke-linecap="round" stroke-linejoin="round"/>
<path d="M384.293 316.999C384.293 316.999 384.293 311.447 385.512 306.031" stroke="#263238" stroke-width="1.1031" stroke-miterlimit="10" stroke-linecap="round" stroke-linejoin="round"/>
<path d="M387.406 252.137C387.406 252.137 394.317 260.939 394.046 267.438C393.639 274.074 393.097 281.927 393.368 289.511C393.504 297.229 381.037 313.208 374.669 314.697C368.3 316.187 362.744 316.457 358.543 312.395C354.478 308.333 350.278 302.645 344.993 295.333C339.573 288.021 340.928 272.042 340.928 272.042" stroke="#263238" stroke-width="1.1031" stroke-miterlimit="10" stroke-linecap="round" stroke-linejoin="round"/>
<path d="M370.743 278C370.336 280.438 370.201 282.875 370.201 285.313C370.201 287.344 370.607 289.51 371.962 291C372.775 291.812 373.859 292.354 373.995 293.437C374.13 294.385 373.453 295.333 372.504 295.739C371.691 296.281 370.743 296.552 369.93 297.229" stroke="#263238" stroke-width="1.1031" stroke-miterlimit="10" stroke-linecap="round" stroke-linejoin="round"/>
<path d="M359.629 298.177C359.629 298.177 360.442 303.322 367.353 304.406" stroke="#263238" stroke-width="1.1031" stroke-miterlimit="10" stroke-linecap="round" stroke-linejoin="round"/>
<path d="M360.305 281.927C360.305 283.417 359.628 284.636 358.815 284.636C358.002 284.636 357.324 283.417 357.324 281.927C357.324 280.438 358.002 279.219 358.815 279.219C359.763 279.219 360.305 280.438 360.305 281.927Z" fill="#263238"/>
<path d="M381.04 282.604C381.04 284.094 380.362 285.313 379.549 285.313C378.736 285.313 378.059 284.094 378.059 282.604C378.059 281.115 378.736 279.896 379.549 279.896C380.498 279.896 381.04 281.115 381.04 282.604Z" fill="#263238"/>
<path d="M376.973 276.105C376.973 276.105 383.748 269.334 389.439 276.917" stroke="#263238" stroke-width="2.2062" stroke-miterlimit="10" stroke-linecap="round" stroke-linejoin="round"/>
<path d="M362.609 276.24C362.609 276.24 358.273 271.501 351.633 276.24" stroke="#263238" stroke-width="2.2062" stroke-miterlimit="10" stroke-linecap="round" stroke-linejoin="round"/>
<path d="M350.145 308.197C350.145 308.197 354.21 319.572 363.56 322.822C372.774 326.072 385.105 309.281 385.105 309.281L384.427 307.114C384.427 307.114 376.433 317.541 367.489 315.78C358.546 314.02 349.738 301.968 349.738 301.968L350.145 308.197Z" fill="#263238"/>
<path d="M341.879 287.75C341.879 287.75 336.324 289.646 334.969 285.448C333.478 281.115 328.464 269.876 332.936 266.084C337.272 262.293 340.795 271.094 340.795 271.094" stroke="#263238" stroke-width="1.1031" stroke-miterlimit="10" stroke-linecap="round" stroke-linejoin="round"/>
<path d="M393.371 290.052C393.371 290.052 398.52 291.135 400.011 286.802C401.501 282.469 406.515 271.23 402.043 267.438C397.707 263.647 394.184 272.449 394.184 272.449" stroke="#263238" stroke-width="1.1031" stroke-miterlimit="10" stroke-linecap="round" stroke-linejoin="round"/>
<path d="M340.793 281.927C342.284 281.792 344.859 280.438 345.672 279.084C346.485 277.73 346.756 276.24 347.027 274.751C347.569 271.907 347.84 268.928 347.84 266.084C347.84 265.001 347.84 263.782 348.111 262.699C348.517 261.616 349.195 260.532 350.008 259.72C351.905 257.418 354.208 255.522 356.105 253.22C357.867 250.918 359.222 247.939 358.815 245.095C358.815 245.095 371.282 256.47 389.304 252.949C398.925 251.053 408.275 242.523 407.191 231.96C406.784 228.169 403.938 225.461 400.415 224.513C395.673 223.294 391.337 225.867 387 227.492C379.141 230.471 371.417 225.325 363.423 224.513C356.647 223.836 348.246 224.648 344.723 231.419C344.723 231.419 332.392 232.908 327.107 242.929C321.687 252.949 331.986 266.897 331.986 266.897C331.986 266.897 336.051 261.886 341.335 272.042L340.793 281.927Z" fill="#263238"/>
<path d="M388.221 249.564C388.221 249.564 385.104 266.084 393.37 274.074C393.37 274.074 395.131 269.063 397.028 267.845C397.028 267.845 401.635 259.178 395.538 249.564C389.44 239.95 388.221 249.564 388.221 249.564Z" fill="#263238"/>
<path opacity="0.2" d="M403.398 230.742C402.179 235.346 398.385 238.866 393.913 240.627C382.395 245.366 371.284 240.085 359.766 239.137C350.416 238.325 339.982 246.72 339.305 256.47" stroke="white" stroke-width="1.1031" stroke-miterlimit="10" stroke-linecap="round" stroke-linejoin="round"/>
<path opacity="0.2" d="M332.258 253.762C332.393 246.179 337.407 238.866 344.453 236.023" stroke="white" stroke-width="1.1031" stroke-miterlimit="10" stroke-linecap="round" stroke-linejoin="round"/>
<path d="M347.027 316.999C347.027 316.999 354.616 325.395 364.914 329.186C364.914 329.186 378.735 325.259 385.646 315.645" stroke="#263238" stroke-width="1.1031" stroke-miterlimit="10" stroke-linecap="round" stroke-linejoin="round"/>
<path d="M361.051 292.995C367.173 290.189 369.86 282.954 367.052 276.836C364.244 270.718 357.005 268.033 350.883 270.839C344.76 273.645 342.073 280.88 344.881 286.998C347.689 293.116 354.929 295.801 361.051 292.995Z" stroke="#263238" stroke-width="1.1031" stroke-miterlimit="10" stroke-linecap="round" stroke-linejoin="round"/>
<path d="M384.667 294.011C391.352 293.191 396.105 287.11 395.284 280.43C394.463 273.75 388.379 268.999 381.694 269.82C375.009 270.64 370.255 276.721 371.076 283.401C371.898 290.081 377.982 294.832 384.667 294.011Z" stroke="#263238" stroke-width="1.1031" stroke-miterlimit="10" stroke-linecap="round" stroke-linejoin="round"/>
<path d="M349.601 312.53C349.601 312.53 345.942 313.343 343.774 317.134C341.606 320.926 342.961 332.842 342.961 332.842C342.961 332.842 354.073 343.811 363.558 348.415L366.403 332.707L370.74 348.415C370.74 348.415 385.374 337.988 389.439 329.321C389.439 329.321 390.794 319.166 389.439 315.78C388.084 312.395 385.103 312.53 385.103 312.53" stroke="#263238" stroke-width="1.1031" stroke-miterlimit="10" stroke-linecap="round" stroke-linejoin="round"/>
<path d="M332.257 417.475C332.257 417.475 327.92 388.361 322.094 376.445" stroke="#263238" stroke-width="1.1031" stroke-miterlimit="10" stroke-linecap="round" stroke-linejoin="round"/>
<path d="M309.629 350.717C309.629 350.717 315.185 358.435 318.572 365.747" stroke="#263238" stroke-width="1.1031" stroke-miterlimit="10" stroke-linecap="round" stroke-linejoin="round"/>
<path d="M423.859 372.383C425.35 366.56 426.976 361.55 428.602 358.164" stroke="#263238" stroke-width="1.1031" stroke-miterlimit="10" stroke-linecap="round" stroke-linejoin="round"/>
<path d="M414.781 417.475C414.781 417.475 417.898 397.569 421.692 381.049" stroke="#263238" stroke-width="1.1031" stroke-miterlimit="10" stroke-linecap="round" stroke-linejoin="round"/>
<path d="M420.199 389.444C423.18 385.517 427.516 382.538 432.259 381.184" stroke="#263238" stroke-width="1.1031" stroke-miterlimit="10" stroke-linecap="round" stroke-linejoin="round"/>
<path d="M389.98 326.613C389.98 326.613 415.184 336.634 431.58 342.456C431.58 342.456 451.635 361.279 473.18 426.547C473.18 426.547 453.532 459.723 415.997 470.285" stroke="#263238" stroke-width="1.1031" stroke-miterlimit="10" stroke-linecap="round" stroke-linejoin="round"/>
<path d="M422.367 439.682L440.525 424.516C440.525 424.516 450.146 417.204 460.037 422.214" stroke="#263238" stroke-width="1.1031" stroke-miterlimit="10" stroke-linecap="round" stroke-linejoin="round"/>
<path d="M421.691 387.684C421.691 387.684 436.732 409.756 440.526 424.651" stroke="#263238" stroke-width="1.1031" stroke-miterlimit="10" stroke-linecap="round" stroke-linejoin="round"/>
<path d="M319.384 429.662L314.099 424.652C314.099 424.652 306.24 423.297 297.297 429.255" stroke="#263238" stroke-width="1.1031" stroke-miterlimit="10" stroke-linecap="round" stroke-linejoin="round"/>
<path d="M314.102 424.652C314.102 424.652 320.741 402.986 327.11 391.882" stroke="#263238" stroke-width="1.1031" stroke-miterlimit="10" stroke-linecap="round" stroke-linejoin="round"/>
<path d="M342.555 329.322C342.555 329.322 306.239 342.998 302.716 346.925C299.193 350.852 285.643 427.089 285.236 435.755C284.965 443.609 313.15 461.077 327.243 468.389" stroke="#263238" stroke-width="1.1031" stroke-miterlimit="10" stroke-linecap="round" stroke-linejoin="round"/>
<path d="M473.995 316.999H432.53C427.652 316.999 423.723 313.072 423.723 308.197V283.959C423.723 279.084 427.652 275.157 432.53 275.157H473.995C478.873 275.157 482.803 279.084 482.803 283.959V308.197C482.938 313.072 479.008 316.999 473.995 316.999Z" fill="white" stroke="#263238" stroke-width="1.1031" stroke-miterlimit="10" stroke-linecap="round" stroke-linejoin="round"/>
<path d="M442.829 287.75L431.582 294.792L442.016 304.135" stroke="#263238" stroke-width="1.1031" stroke-miterlimit="10" stroke-linecap="round" stroke-linejoin="round"/>
<path d="M463.561 304.812L473.859 296.146L462.07 288.427" stroke="#263238" stroke-width="1.1031" stroke-miterlimit="10" stroke-linecap="round" stroke-linejoin="round"/>
<path d="M448.383 310.229L456.784 283.959" stroke="#263238" stroke-width="1.1031" stroke-miterlimit="10" stroke-linecap="round" stroke-linejoin="round"/>
<path d="M369.655 355.05C369.655 356.404 368.571 357.487 367.216 357.487C365.861 357.487 364.777 356.404 364.777 355.05C364.777 353.696 365.861 352.612 367.216 352.612C368.571 352.612 369.655 353.696 369.655 355.05Z" fill="#263238"/>
<path d="M411.797 482.608H329.139C328.055 482.608 327.242 481.795 327.242 480.712C327.242 479.629 328.055 478.816 329.139 478.816H411.797C412.881 478.816 413.694 479.629 413.694 480.712C413.694 481.66 412.745 482.608 411.797 482.608Z" fill="#263238"/>
<path d="M414.644 476.108L425.755 424.11C426.433 420.725 423.858 417.475 420.335 417.475H323.72C320.197 417.475 317.623 420.725 318.3 424.11L328.192 474.348C328.734 476.92 330.902 478.681 333.477 478.816L409.088 480.577C411.798 480.577 414.102 478.816 414.644 476.108Z" fill="white" stroke="#263238" stroke-width="1.1031" stroke-miterlimit="10" stroke-linecap="round" stroke-linejoin="round"/>
<path d="M379.412 447.401C379.412 451.598 376.025 455.119 371.689 455.119C367.352 455.119 363.965 451.734 363.965 447.401C363.965 443.067 367.352 439.682 371.689 439.682C376.025 439.682 379.412 443.203 379.412 447.401Z" fill="#263238"/>
<path d="M394.59 422.349H405.972" stroke="#263238" stroke-width="1.1031" stroke-miterlimit="10" stroke-linecap="round" stroke-linejoin="round"/>
<path d="M339.711 422.349H383.343" stroke="#263238" stroke-width="1.1031" stroke-miterlimit="10" stroke-linecap="round" stroke-linejoin="round"/>
<path d="M414.779 531.356L405.971 554.511C405.971 554.511 383.478 548.824 354.751 543.001C324.669 536.772 293.232 528.919 276.971 500.347C274.939 496.826 273.719 492.764 274.532 488.837C276.836 478.952 289.709 476.243 298.245 475.295C303.53 474.618 308.95 474.483 314.235 474.348C316.945 474.348 326.024 472.858 328.192 474.483C328.192 474.483 333.883 478.681 338.626 480.712C343.368 482.743 413.695 478.816 413.695 478.816C413.695 478.816 415.728 474.348 415.863 470.421C426.839 464.869 452.449 460.129 463.29 462.16C480.228 465.41 490.12 475.295 488.358 485.722C486.461 496.013 448.926 523.773 414.779 531.356Z" fill="#263238"/>
<path d="M414.781 531.356C414.781 531.356 393.371 525.669 376.027 513.888C358.547 502.107 344.996 488.43 320.605 491.274" stroke="white" stroke-width="1.1031" stroke-miterlimit="10" stroke-linecap="round" stroke-linejoin="round"/>
<path d="M371.961 511.044C382.937 507.93 391.067 500.753 399.875 493.847C409.225 486.535 419.116 479.629 429.821 474.212" stroke="white" stroke-width="1.1031" stroke-miterlimit="10" stroke-linecap="round" stroke-linejoin="round"/>
<path d="M368.168 283.959H371.42" stroke="#263238" stroke-width="1.1031" stroke-miterlimit="10" stroke-linecap="round" stroke-linejoin="round"/>
</g>
<defs>
<clipPath id="clip0_87_27406">
<rect width="595" height="582" fill="white"/>
</clipPath>
</defs>
</svg>
