<svg width="16" height="16" viewBox="0 0 16 16" fill="none" xmlns="http://www.w3.org/2000/svg">
<g clip-path="url(#clip0_84_19609)">
<path d="M7.88501 7.70724C8.94385 7.70724 9.86072 7.32749 10.6099 6.57822C11.359 5.82908 11.7388 4.91246 11.7388 3.8535C11.7388 2.79491 11.359 1.87817 10.6097 1.12878C9.86047 0.379759 8.94373 0 7.88501 0C6.82605 0 5.90942 0.379759 5.16028 1.1289C4.41113 1.87804 4.03125 2.79479 4.03125 3.8535C4.03125 4.91246 4.41113 5.8292 5.1604 6.57834C5.90967 7.32736 6.82642 7.70724 7.88501 7.70724Z" fill="#C4CACF"/>
<path d="M14.629 12.3032C14.6074 11.9914 14.5637 11.6514 14.4994 11.2922C14.4344 10.9304 14.3508 10.5884 14.2507 10.2757C14.1473 9.95263 14.0067 9.63354 13.8329 9.32775C13.6525 9.01037 13.4406 8.734 13.2028 8.50659C12.9541 8.26867 12.6497 8.07739 12.2976 7.93787C11.9468 7.79907 11.558 7.72876 11.1421 7.72876C10.9788 7.72876 10.8208 7.79578 10.5157 7.99438C10.328 8.11682 10.1084 8.25842 9.86328 8.41504C9.65369 8.54858 9.36975 8.6737 9.01904 8.78698C8.67688 8.8977 8.32947 8.95385 7.98657 8.95385C7.64368 8.95385 7.29639 8.8977 6.95386 8.78698C6.60352 8.67382 6.31958 8.5487 6.11023 8.41516C5.86743 8.26001 5.64771 8.11841 5.45715 7.99426C5.15247 7.79565 4.99438 7.72864 4.83105 7.72864C4.41504 7.72864 4.02637 7.79907 3.67566 7.93799C3.32385 8.07727 3.01929 8.26855 2.77039 8.50671C2.53271 8.73425 2.32068 9.01049 2.1405 9.32775C1.9668 9.63354 1.82617 9.95251 1.72266 10.2759C1.62268 10.5885 1.53906 10.9304 1.47412 11.2922C1.40979 11.6509 1.36609 11.9911 1.34448 12.3036C1.32324 12.6097 1.3125 12.9275 1.3125 13.2484C1.3125 14.0836 1.578 14.7597 2.10156 15.2584C2.61865 15.7505 3.30286 16.0001 4.13489 16.0001H11.839C12.671 16.0001 13.355 15.7506 13.8722 15.2584C14.3959 14.7601 14.6614 14.0838 14.6614 13.2483C14.6613 12.9259 14.6504 12.6079 14.629 12.3032Z" fill="#C4CACF"/>
</g>
<defs>
<clipPath id="clip0_84_19609">
<rect width="16" height="16" fill="white"/>
</clipPath>
</defs>
</svg>
