<svg width="14" height="10" viewBox="0 0 14 10" fill="none" xmlns="http://www.w3.org/2000/svg">
<path d="M7.00107 3.09094C8.05426 3.09094 8.91016 3.94684 8.91016 5.00003C8.91016 6.05322 8.05426 6.90912 7.00107 6.90912C5.94788 6.90912 5.09198 6.05322 5.09198 5.00003C5.09198 3.94684 5.94791 3.09094 7.00107 3.09094Z" fill="#C4CACF"/>
<path d="M6.99998 0.227295C10.1818 0.227295 12.8991 2.20637 14 5.00002C12.8991 7.79365 10.1818 9.77275 6.99998 9.77275C3.81499 9.77275 1.10089 7.79365 -3.06875e-05 5.00002C1.10089 2.20637 3.81499 0.227295 6.99998 0.227295ZM6.99998 8.18182C8.75635 8.18182 10.1818 6.75636 10.1818 4.99999C10.1818 3.24363 8.75635 1.81819 6.99998 1.81819C5.24362 1.81819 3.81815 3.24366 3.81815 5.00002C3.81815 6.75639 5.24362 8.18182 6.99998 8.18182Z" fill="#C4CACF"/>
</svg>
